<mxfile host="65bd71144e">
    <diagram id="M24APGjKGz7K2KcGUeGt" name="Page-1">
        <mxGraphModel dx="1386" dy="779" grid="1" gridSize="10" guides="1" tooltips="1" connect="1" arrows="1" fold="1" page="1" pageScale="1" pageWidth="827" pageHeight="1169" math="0" shadow="0">
            <root>
                <mxCell id="0"/>
                <mxCell id="1" parent="0"/>
                <mxCell id="oJrs31lEFTN2H5dXKtez-7" value="ブログビジネスはシンプル" style="swimlane;" parent="1" vertex="1">
                    <mxGeometry x="1070" y="130" width="440" height="260" as="geometry">
                        <mxRectangle x="1050" y="110" width="180" height="23" as="alternateBounds"/>
                    </mxGeometry>
                </mxCell>
                <mxCell id="qrXmhDIEpd92iT6EIlRh-3" value="WordPress&lt;br&gt;H-Row Blog" style="rounded=0;whiteSpace=wrap;html=1;" parent="oJrs31lEFTN2H5dXKtez-7" vertex="1">
                    <mxGeometry x="20" y="50" width="130" height="60" as="geometry"/>
                </mxCell>
                <mxCell id="oJrs31lEFTN2H5dXKtez-1" value="Twitter&lt;br&gt;H-Row (2)" style="rounded=0;whiteSpace=wrap;html=1;" parent="oJrs31lEFTN2H5dXKtez-7" vertex="1">
                    <mxGeometry x="20" y="170" width="120" height="60" as="geometry"/>
                </mxCell>
                <mxCell id="oJrs31lEFTN2H5dXKtez-3" style="edgeStyle=orthogonalEdgeStyle;rounded=0;orthogonalLoop=1;jettySize=auto;html=1;" parent="oJrs31lEFTN2H5dXKtez-7" source="oJrs31lEFTN2H5dXKtez-2" target="qrXmhDIEpd92iT6EIlRh-3" edge="1">
                    <mxGeometry relative="1" as="geometry"/>
                </mxCell>
                <mxCell id="oJrs31lEFTN2H5dXKtez-4" style="edgeStyle=orthogonalEdgeStyle;rounded=0;orthogonalLoop=1;jettySize=auto;html=1;" parent="oJrs31lEFTN2H5dXKtez-7" source="oJrs31lEFTN2H5dXKtez-2" target="oJrs31lEFTN2H5dXKtez-1" edge="1">
                    <mxGeometry relative="1" as="geometry">
                        <Array as="points">
                            <mxPoint x="330" y="200"/>
                        </Array>
                    </mxGeometry>
                </mxCell>
                <mxCell id="oJrs31lEFTN2H5dXKtez-2" value="顧客 - 読者" style="rounded=0;whiteSpace=wrap;html=1;" parent="oJrs31lEFTN2H5dXKtez-7" vertex="1">
                    <mxGeometry x="280" y="50" width="120" height="60" as="geometry"/>
                </mxCell>
                <mxCell id="NEG6-P5xT2rYGMhugZqJ-4" value="音楽関連のブログやSNSの発信を行うのは、同業者しか引き寄せない&#10;→ 広告収入の目的しか果たせず、それなら他のテーマの方が良い" style="swimlane;fontSize=25;startSize=100;" parent="1" vertex="1">
                    <mxGeometry y="130" width="1030" height="810" as="geometry">
                        <mxRectangle y="130" width="810" height="70" as="alternateBounds"/>
                    </mxGeometry>
                </mxCell>
                <mxCell id="qrXmhDIEpd92iT6EIlRh-65" value="あまり意味がない" style="swimlane;fontSize=11;strokeColor=#000000;fillColor=#ffffff;gradientColor=none;" parent="NEG6-P5xT2rYGMhugZqJ-4" vertex="1">
                    <mxGeometry x="75" y="540" width="400" height="150" as="geometry">
                        <mxRectangle x="20" y="525" width="80" height="23" as="alternateBounds"/>
                    </mxGeometry>
                </mxCell>
                <mxCell id="qrXmhDIEpd92iT6EIlRh-52" value="WordPress&lt;br&gt;H-Row Music Articles" style="rounded=0;whiteSpace=wrap;html=1;strokeColor=#000000;fillColor=#ffffff;gradientColor=none;" parent="qrXmhDIEpd92iT6EIlRh-65" vertex="1">
                    <mxGeometry x="40" y="50" width="120" height="60" as="geometry"/>
                </mxCell>
                <mxCell id="qrXmhDIEpd92iT6EIlRh-45" value="顧客 - 同業者（音楽制作）" style="rounded=0;whiteSpace=wrap;html=1;strokeColor=#000000;fillColor=#ffffff;gradientColor=none;" parent="qrXmhDIEpd92iT6EIlRh-65" vertex="1">
                    <mxGeometry x="210" y="50" width="160" height="60" as="geometry"/>
                </mxCell>
                <mxCell id="qrXmhDIEpd92iT6EIlRh-58" style="edgeStyle=orthogonalEdgeStyle;rounded=0;orthogonalLoop=1;jettySize=auto;html=1;fontSize=20;" parent="qrXmhDIEpd92iT6EIlRh-65" source="qrXmhDIEpd92iT6EIlRh-45" target="qrXmhDIEpd92iT6EIlRh-52" edge="1">
                    <mxGeometry relative="1" as="geometry"/>
                </mxCell>
                <mxCell id="qrXmhDIEpd92iT6EIlRh-44" value="顧客 - 依頼主 - 音楽" style="rounded=0;whiteSpace=wrap;html=1;strokeColor=#000000;fillColor=#ffffff;gradientColor=none;" parent="NEG6-P5xT2rYGMhugZqJ-4" vertex="1">
                    <mxGeometry x="215" y="410" width="120" height="60" as="geometry"/>
                </mxCell>
                <mxCell id="qrXmhDIEpd92iT6EIlRh-72" style="edgeStyle=orthogonalEdgeStyle;rounded=0;orthogonalLoop=1;jettySize=auto;html=1;fontSize=11;" parent="NEG6-P5xT2rYGMhugZqJ-4" source="qrXmhDIEpd92iT6EIlRh-44" target="qrXmhDIEpd92iT6EIlRh-52" edge="1">
                    <mxGeometry relative="1" as="geometry">
                        <Array as="points">
                            <mxPoint x="145" y="315"/>
                            <mxPoint x="145" y="315"/>
                        </Array>
                    </mxGeometry>
                </mxCell>
                <mxCell id="qrXmhDIEpd92iT6EIlRh-73" value="来ない" style="edgeLabel;html=1;align=center;verticalAlign=middle;resizable=0;points=[];fontSize=11;" parent="qrXmhDIEpd92iT6EIlRh-72" vertex="1" connectable="0">
                    <mxGeometry x="-0.1812" relative="1" as="geometry">
                        <mxPoint as="offset"/>
                    </mxGeometry>
                </mxCell>
                <mxCell id="qrXmhDIEpd92iT6EIlRh-69" value="Twitter&lt;br&gt;H-Row (1)&lt;br&gt;同業者・音楽制作関連" style="rounded=0;whiteSpace=wrap;html=1;strokeColor=#000000;fillColor=#ffffff;gradientColor=none;" parent="NEG6-P5xT2rYGMhugZqJ-4" vertex="1">
                    <mxGeometry x="810" y="520" width="150" height="70" as="geometry"/>
                </mxCell>
                <mxCell id="qrXmhDIEpd92iT6EIlRh-46" value="Twitter&lt;br&gt;H-Row (1)&lt;br&gt;活動報告" style="rounded=0;whiteSpace=wrap;html=1;strokeColor=#000000;fillColor=#ffffff;gradientColor=none;" parent="NEG6-P5xT2rYGMhugZqJ-4" vertex="1">
                    <mxGeometry x="570" y="350" width="150" height="70" as="geometry"/>
                </mxCell>
                <mxCell id="qrXmhDIEpd92iT6EIlRh-1" value="WordPress&lt;br&gt;H-Row Music Portfoli" style="rounded=0;whiteSpace=wrap;html=1;" parent="NEG6-P5xT2rYGMhugZqJ-4" vertex="1">
                    <mxGeometry x="360" y="320" width="130" height="60" as="geometry"/>
                </mxCell>
                <mxCell id="qrXmhDIEpd92iT6EIlRh-2" value="H-Row Music Channel" style="rounded=0;whiteSpace=wrap;html=1;" parent="NEG6-P5xT2rYGMhugZqJ-4" vertex="1">
                    <mxGeometry x="530" y="160" width="130" height="60" as="geometry"/>
                </mxCell>
                <mxCell id="qrXmhDIEpd92iT6EIlRh-42" value="顧客 - 視聴者&lt;br&gt;広告 &amp;amp; 販売" style="rounded=0;whiteSpace=wrap;html=1;strokeColor=#000000;fillColor=#ffffff;gradientColor=none;" parent="NEG6-P5xT2rYGMhugZqJ-4" vertex="1">
                    <mxGeometry x="820" y="160" width="120" height="60" as="geometry"/>
                </mxCell>
                <mxCell id="qrXmhDIEpd92iT6EIlRh-78" style="edgeStyle=orthogonalEdgeStyle;rounded=0;orthogonalLoop=1;jettySize=auto;html=1;fontSize=11;" parent="NEG6-P5xT2rYGMhugZqJ-4" source="qrXmhDIEpd92iT6EIlRh-44" target="qrXmhDIEpd92iT6EIlRh-69" edge="1">
                    <mxGeometry relative="1" as="geometry">
                        <Array as="points">
                            <mxPoint x="185" y="445"/>
                            <mxPoint x="185" y="515"/>
                            <mxPoint x="650" y="515"/>
                            <mxPoint x="650" y="640"/>
                        </Array>
                    </mxGeometry>
                </mxCell>
                <mxCell id="qrXmhDIEpd92iT6EIlRh-79" value="興味ない" style="edgeLabel;html=1;align=center;verticalAlign=middle;resizable=0;points=[];fontSize=11;" parent="qrXmhDIEpd92iT6EIlRh-78" vertex="1" connectable="0">
                    <mxGeometry x="0.2392" y="-1" relative="1" as="geometry">
                        <mxPoint as="offset"/>
                    </mxGeometry>
                </mxCell>
                <mxCell id="qrXmhDIEpd92iT6EIlRh-48" style="edgeStyle=orthogonalEdgeStyle;rounded=0;orthogonalLoop=1;jettySize=auto;html=1;" parent="NEG6-P5xT2rYGMhugZqJ-4" source="qrXmhDIEpd92iT6EIlRh-44" target="qrXmhDIEpd92iT6EIlRh-46" edge="1">
                    <mxGeometry relative="1" as="geometry">
                        <Array as="points">
                            <mxPoint x="145" y="255"/>
                            <mxPoint x="640" y="255"/>
                        </Array>
                    </mxGeometry>
                </mxCell>
                <mxCell id="qrXmhDIEpd92iT6EIlRh-77" value="フォローして関係を持ちたい" style="edgeLabel;html=1;align=center;verticalAlign=middle;resizable=0;points=[];fontSize=11;" parent="qrXmhDIEpd92iT6EIlRh-48" vertex="1" connectable="0">
                    <mxGeometry x="0.4508" y="-1" relative="1" as="geometry">
                        <mxPoint as="offset"/>
                    </mxGeometry>
                </mxCell>
                <mxCell id="qrXmhDIEpd92iT6EIlRh-47" style="edgeStyle=orthogonalEdgeStyle;rounded=0;orthogonalLoop=1;jettySize=auto;html=1;" parent="NEG6-P5xT2rYGMhugZqJ-4" source="qrXmhDIEpd92iT6EIlRh-44" target="qrXmhDIEpd92iT6EIlRh-1" edge="1">
                    <mxGeometry relative="1" as="geometry">
                        <Array as="points">
                            <mxPoint x="205" y="405"/>
                            <mxPoint x="205" y="215"/>
                            <mxPoint x="420" y="215"/>
                        </Array>
                    </mxGeometry>
                </mxCell>
                <mxCell id="qrXmhDIEpd92iT6EIlRh-74" style="edgeStyle=orthogonalEdgeStyle;rounded=0;orthogonalLoop=1;jettySize=auto;html=1;fontSize=11;" parent="NEG6-P5xT2rYGMhugZqJ-4" source="qrXmhDIEpd92iT6EIlRh-45" target="qrXmhDIEpd92iT6EIlRh-1" edge="1">
                    <mxGeometry relative="1" as="geometry"/>
                </mxCell>
                <mxCell id="qrXmhDIEpd92iT6EIlRh-75" value="行かない（依頼しない）" style="edgeLabel;html=1;align=center;verticalAlign=middle;resizable=0;points=[];fontSize=11;" parent="qrXmhDIEpd92iT6EIlRh-74" vertex="1" connectable="0">
                    <mxGeometry x="0.098" y="3" relative="1" as="geometry">
                        <mxPoint as="offset"/>
                    </mxGeometry>
                </mxCell>
                <mxCell id="qrXmhDIEpd92iT6EIlRh-51" style="edgeStyle=orthogonalEdgeStyle;rounded=0;orthogonalLoop=1;jettySize=auto;html=1;entryX=1;entryY=0.5;entryDx=0;entryDy=0;" parent="NEG6-P5xT2rYGMhugZqJ-4" source="qrXmhDIEpd92iT6EIlRh-2" target="qrXmhDIEpd92iT6EIlRh-1" edge="1">
                    <mxGeometry relative="1" as="geometry"/>
                </mxCell>
                <mxCell id="qrXmhDIEpd92iT6EIlRh-50" style="edgeStyle=orthogonalEdgeStyle;rounded=0;orthogonalLoop=1;jettySize=auto;html=1;entryX=0;entryY=0.5;entryDx=0;entryDy=0;" parent="NEG6-P5xT2rYGMhugZqJ-4" source="qrXmhDIEpd92iT6EIlRh-44" target="qrXmhDIEpd92iT6EIlRh-2" edge="1">
                    <mxGeometry relative="1" as="geometry">
                        <Array as="points">
                            <mxPoint x="285" y="385"/>
                            <mxPoint x="285" y="165"/>
                        </Array>
                    </mxGeometry>
                </mxCell>
                <mxCell id="qrXmhDIEpd92iT6EIlRh-49" style="edgeStyle=orthogonalEdgeStyle;rounded=0;orthogonalLoop=1;jettySize=auto;html=1;" parent="NEG6-P5xT2rYGMhugZqJ-4" source="qrXmhDIEpd92iT6EIlRh-42" target="qrXmhDIEpd92iT6EIlRh-2" edge="1">
                    <mxGeometry relative="1" as="geometry"/>
                </mxCell>
                <mxCell id="qrXmhDIEpd92iT6EIlRh-76" value="観たい・聴きたい" style="edgeLabel;html=1;align=center;verticalAlign=middle;resizable=0;points=[];fontSize=11;" parent="qrXmhDIEpd92iT6EIlRh-49" vertex="1" connectable="0">
                    <mxGeometry x="0.2375" y="-1" relative="1" as="geometry">
                        <mxPoint as="offset"/>
                    </mxGeometry>
                </mxCell>
                <mxCell id="qrXmhDIEpd92iT6EIlRh-70" style="edgeStyle=orthogonalEdgeStyle;rounded=0;orthogonalLoop=1;jettySize=auto;html=1;entryX=1;entryY=0.5;entryDx=0;entryDy=0;fontSize=11;" parent="NEG6-P5xT2rYGMhugZqJ-4" source="qrXmhDIEpd92iT6EIlRh-42" target="qrXmhDIEpd92iT6EIlRh-46" edge="1">
                    <mxGeometry relative="1" as="geometry">
                        <Array as="points">
                            <mxPoint x="805" y="165"/>
                            <mxPoint x="805" y="360"/>
                        </Array>
                    </mxGeometry>
                </mxCell>
                <mxCell id="qrXmhDIEpd92iT6EIlRh-71" value="活動内容が知りたい" style="edgeLabel;html=1;align=center;verticalAlign=middle;resizable=0;points=[];fontSize=11;" parent="qrXmhDIEpd92iT6EIlRh-70" vertex="1" connectable="0">
                    <mxGeometry x="0.1055" y="1" relative="1" as="geometry">
                        <mxPoint as="offset"/>
                    </mxGeometry>
                </mxCell>
                <mxCell id="qrXmhDIEpd92iT6EIlRh-80" style="edgeStyle=orthogonalEdgeStyle;rounded=0;orthogonalLoop=1;jettySize=auto;html=1;fontSize=11;" parent="NEG6-P5xT2rYGMhugZqJ-4" source="qrXmhDIEpd92iT6EIlRh-42" target="qrXmhDIEpd92iT6EIlRh-69" edge="1">
                    <mxGeometry relative="1" as="geometry">
                        <Array as="points">
                            <mxPoint x="885" y="555"/>
                        </Array>
                    </mxGeometry>
                </mxCell>
                <mxCell id="qrXmhDIEpd92iT6EIlRh-81" value="興味ない" style="edgeLabel;html=1;align=center;verticalAlign=middle;resizable=0;points=[];fontSize=11;" parent="qrXmhDIEpd92iT6EIlRh-80" vertex="1" connectable="0">
                    <mxGeometry x="0.1385" y="2" relative="1" as="geometry">
                        <mxPoint as="offset"/>
                    </mxGeometry>
                </mxCell>
            </root>
        </mxGraphModel>
    </diagram>
</mxfile>